{"title":"Arakawa Under The Bridge","uid":9246089,"size":1817144990,"categoryP":"video","categoryS":"tv_shows","magnet":"?xt=urn:btih:5c0045946e55006965b090b962704cbd010769cf&amp;dn=Arakawa+Under+The+Bridge&amp;tr=udp%3A%2F%2Ftracker.openbittorrent.com%3A80&amp;tr=udp%3A%2F%2Fopen.demonii.com%3A1337&amp;tr=udp%3A%2F%2Ftracker.coppersurfer.tk%3A6969&amp;tr=udp%3A%2F%2Fexodus.desync.com%3A6969","seeders":0,"leechers":1,"uploader":"p7trick","files":-1,"time":1385374302,"description":"downloaded from animewaffles\n\n\nArakawa Under The Bridge english SUBBED eps 1-13\n\n_________________________________________________________\n\nFormat                                   : MPEG-4\nFormat profile                           : Base Media\nCodec ID                                 : isom\nFile size                                : 134 MiB\nDuration                                 : 24mn 9s\nOverall bit rate mode                    : Variable\nOverall bit rate                         : 777 Kbps\nEncoded date                             : UTC 2011-12-07 13:32:19\nTagged date                              : UTC 2011-12-07 13:32:19\n\nVideo\nID                                       : 1\nFormat                                   : AVC\nFormat/Info                              : Advanced Video Codec\nFormat profile                           : &lt;a class=&quot;__cf_email__&quot; href=&quot;/cdn-cgi/l/email-protection&quot; data-cfemail=&quot;ce86a7a9a68e82fde0fe&quot;&gt;[email&amp;#160;protected]&lt;/a&gt;&lt;script cf-hash='f9e31' type=&quot;text/javascript&quot;&gt;\n/* &lt;![CDATA[ */!function(){try{var t=&quot;currentScript&quot;in document?document.currentScript:function(){for(var t=document.getElementsByTagName(&quot;script&quot;),e=t.length;e--;)if(t[e].getAttribute(&quot;cf-hash&quot;))return t[e]}();if(t&amp;&amp;t.previousSibling){var e,r,n,i,c=t.previousSibling,a=c.getAttribute(&quot;data-cfemail&quot;);if(a){for(e=&quot;&quot;,r=parseInt(a.substr(0,2),16),n=2;a.length-n;n+=2)i=parseInt(a.substr(n,2),16)^r,e+=String.fromCharCode(i);e=document.createTextNode(e),c.parentNode.replaceChild(e,c)}}}catch(u){}}();/* ]]&gt; */&lt;/script&gt;\nFormat settings, CABAC                   : Yes\nFormat settings, ReFrames                : 4 frames\nCodec ID                                 : avc1\nCodec ID/Info                            : Advanced Video Coding\nDuration                                 : 24mn 9s\nBit rate                                 : 710 Kbps\nMaximum bit rate                         : 6 338 Kbps\nWidth                                    : 640 pixels\nHeight                                   : 360 pixels\nDisplay aspect ratio                     : 16:9\nFrame rate mode                          : Constant\nFrame rate                               : 23.976 fps\nColor space                              : YUV\nChroma subsampling                       : 4:2:0\nBit depth                                : 8 bits\nScan type                                : Progressive\nBits/(Pixel*Frame)                       : 0.129\nStream size                              : 123 MiB (91%)\nWriting library                          : x264 core 119 r2106 07efeb4\nEncoding settings                        : cabac=1 / ref=3 / deblock=1:0:0 / \nEncoded date                             : UTC 2011-12-07 13:32:19\nTagged date                              : UTC 2011-12-07 13:32:32\n\nAudio\nID                                       : 2\nFormat                                   : AAC\nFormat/Info                              : Advanced Audio Codec\nFormat profile                           : LC\nCodec ID                                 : 40\nDuration                                 : 24mn 9s\nBit rate mode                            : Variable\nBit rate                                 : 63.8 Kbps\nMaximum bit rate                         : 88.1 Kbps\nChannel(s)                               : 2 channels\nChannel positions                        : Front: L R\nSampling rate                            : 48.0 KHz\nCompression mode                         : Lossy\nStream size                              : 11.0 MiB (8%)\nEncoded date                             : UTC 2011-12-07 13:32:31\nTagged date                              : UTC 2011-12-07 13:32:32\n\n\n_________________________________________________________\n\nSummary:\nIchinomiya Kou has always lived according to the creed of his wealthy, successful family: never be in debt to anyone. But one day, under the Arakawa Bridge, his life is saved by a homeless girl named Nino. In order to pay her back, Kou promises to be her boyfriend; and thus begins his new life under the bridge.\n\nfor updates:\ntwitter - @p7tricktorrent\nFacebook - /p7tricktorrent\n_________________________________________________________\n\nSEED!\n\nshare ratio:\n&quot;Scumbag = 0.1:1\nLeecher = 0.999:1\nMinimum = 1:1\nGood = 3:1\nGreat = 5:1\nAwesome = 10:1\n1337 = 100:1&quot;","torrent":{"xt":"urn:btih:5c0045946e55006965b090b962704cbd010769cf","amp;dn":"Arakawa+Under+The+Bridge","amp;tr":["udp%3A%2F%2Ftracker.openbittorrent.com%3A80","udp%3A%2F%2Fopen.demonii.com%3A1337","udp%3A%2F%2Ftracker.coppersurfer.tk%3A6969","udp%3A%2F%2Fexodus.desync.com%3A6969"],"infoHash":"5c0045946e55006965b090b962704cbd010769cf","infoHashBuffer":{"type":"Buffer","data":[92,0,69,148,110,85,0,105,101,176,144,185,98,112,76,189,1,7,105,207]},"announce":[],"urlList":[]}}